<svg version="1.1" id="Layer_1" xmlns="http://www.w3.org/2000/svg" xmlns:xlink="http://www.w3.org/1999/xlink" x="0px" y="0px" viewBox="0 0 1184.3 297.5" style="enable-background:new 0 0 1184.3 297.5;" xml:space="preserve" width="100%" height="100%" preserveAspectRatio="none"><style type="text/css"> .st0{fill:#1BDBDB;} </style><g id="GD_MASTERBRAND_RGB_COLOR"><path class="st0" d="M293.5,52.7C269,37.3,236.7,41,207.9,59.1c-28.7-18.1-61-21.7-85.5-6.4C83.7,76.9,79,139.2,111.9,191.9 c24.3,38.9,62.3,61.6,96.1,61.2c33.8,0.4,71.8-22.3,96.1-61.2C336.9,139.2,332.2,76.9,293.5,52.7z M129.7,180.8 c-6.8-10.8-11.9-22.5-15.2-34.8c-2.9-10.7-4-21.8-3.3-32.8c1.5-19.5,9.4-34.6,22.3-42.7s30-8.6,48.2-1.3c2.8,1.1,5.5,2.4,8.1,3.7 c-10.1,9.2-18.9,19.8-26.1,31.4c-20,32-26.1,67.6-19.1,96C139,194.3,134,187.8,129.7,180.8z M301.4,146c-3.3,12.3-8.4,24-15.2,34.8 c-4.3,7-9.3,13.5-14.9,19.5c6.2-25.4,2-56.6-13.3-85.9c-1-1.9-3.3-2.7-5.2-1.7c-0.1,0.1-0.2,0.1-0.4,0.2l-47.7,29.8 c-1.8,1.1-2.4,3.5-1.2,5.4l7,11.2c1.1,1.8,3.5,2.4,5.4,1.2l30.9-19.3c1,3,2,6,2.8,9c2.9,10.7,4,21.8,3.3,32.8 c-1.5,19.5-9.4,34.6-22.3,42.7c-6.7,4.1-14.3,6.3-22.1,6.4c-0.2,0-0.4,0-0.5,0c-0.2,0-0.3,0-0.5,0c-7.8-0.1-15.4-2.3-22.1-6.4 c-12.9-8.1-20.9-23.2-22.3-42.7c-0.7-11,0.4-22.1,3.3-32.8c6.7-24.7,20.6-46.9,39.8-63.7c8.3-7.3,17.8-13.2,28-17.3 c18.1-7.2,35.3-6.7,48.2,1.3s20.9,23.2,22.3,42.7C305.4,124.2,304.3,135.3,301.4,146z"/><path class="st0" d="M547.5,122.6c25.3,0,45.5,19.6,45.5,44.5c0,24.7-20.3,44-45.5,44c-25.1,0-45.3-19.2-45.3-44 C502.2,142.2,522.5,122.6,547.5,122.6 M547.5,187.9c11.7,0,20.5-9.4,20.5-20.9s-8.8-21.1-20.5-21.1c-11.6,0-20.4,9.5-20.4,21.1 S536,187.9,547.5,187.9 M712.2,148.4c0,35.7-25.7,60.3-62.6,60.3h-46.1c-2.1,0-3.8-1.6-3.8-3.7c0-0.1,0-0.2,0-0.2V92.2 c0-2,1.6-3.7,3.6-3.8c0.1,0,0.1,0,0.2,0h46.1C686.5,88.4,712.2,112.5,712.2,148.4 M685.2,148.4c0-21-14.1-36.2-34.5-36.2h-25.3V185 h25.3C671.1,185,685.2,169,685.2,148.4 M759.1,122.6c11.2,0,20.1,4.8,24,11.3v-5.2c0.1-2,1.6-3.6,3.6-3.8h17.3c2,0,3.6,1.7,3.6,3.7 c0,0,0,0,0,0.1v76.3c0,1.9-1.5,3.6-3.4,3.6c-0.1,0-0.1,0-0.2,0h-17.3c-2,0-3.6-1.6-3.6-3.6v-5.3c-4,6.5-13.1,11.3-24.2,11.3 c-21.6,0-41.7-17.3-41.7-44.3C717.1,139.6,737.4,122.6,759.1,122.6 M763.7,188c11.5,0,20.1-8.8,20.1-21.1s-8.6-21.1-20.1-21.1 c-11.5,0-20.1,8.8-20.1,21.1S752.2,188,763.7,188 M855.9,122.6c11.3,0,20.4,4.8,24.4,11V92.1c0-2,1.7-3.6,3.7-3.6c0,0,0,0,0.1,0 h17.4c1.9,0,3.6,1.5,3.6,3.4c0,0.1,0,0.1,0,0.2v113c0,1.9-1.5,3.6-3.4,3.6c-0.1,0-0.1,0-0.2,0h-17.4c-2,0-3.6-1.6-3.6-3.6v-5.3 c-4.6,6.5-13.1,11.3-24.2,11.3c-21.6,0-41.7-17.3-41.7-44.3C814.5,139.6,834.5,122.6,855.9,122.6 M861.1,188.2 c11.4,0,20-8.9,20-21.3s-8.6-21.3-20-21.3c-11.4,0-20,8.9-20,21.3S849.6,188.2,861.1,188.2 M953.3,122.6c11.3,0,20.4,4.8,24.4,11 V92.1c0-2,1.7-3.6,3.7-3.6c0,0,0,0,0.1,0h17.3c1.9,0,3.6,1.5,3.6,3.4c0,0.1,0,0.1,0,0.2v113c0,1.9-1.5,3.6-3.4,3.6 c-0.1,0-0.1,0-0.2,0h-17.3c-2,0-3.6-1.6-3.6-3.6v-5.3c-4.6,6.5-13.1,11.3-24.2,11.3c-21.6,0-41.7-17.3-41.7-44.3 C911.9,139.6,931.9,122.6,953.3,122.6 M958.5,188.2c11.4,0,20-8.9,20-21.3s-8.6-21.3-20-21.3c-11.4,0-20,8.9-20,21.3 S947,188.2,958.5,188.2 M1090.5,125h-17.3c-2.7,0-4.1,1.9-4.6,4l-16,59.7l-17.1-59.7c-1-3.2-2.5-4-4.8-4h-18.2 c-4.3,0-5.1,2.9-4.2,5.8l23.2,74.2c0.7,2.1,2.1,3.6,4.6,3.6h10.5l-2.2,7.4c-2.2,6.4-6.3,8.1-11.6,8.1c-4.6,0-7.6-1.8-10.8-3.9 c-1-0.7-2.2-1.2-3.4-1.2c-1.6,0-2.6,0.7-4.1,2.8l-5.1,7.7c-1,1.6-1.5,2.5-1.5,4.2c0,2.7,2.7,4.4,6,6.3c5.6,3.2,12.8,4.8,20.7,4.8 c17.3,0,28.5-9.4,33.5-25.2l25.9-88.8C1095,127.4,1094,125,1090.5,125L1090.5,125z M473.5,192.3c-9.1,11.5-24.9,18.7-42.8,18.7 c-33.6,0-59.8-25.3-59.8-61.2c0-37.4,28.3-63.1,64.1-63.1c26.4,0,47.5,11.4,56.9,34.2c0.3,0.6,0.4,1.2,0.4,1.9c0,1.1-0.7,1.9-3,2.7 l-16.7,6.4c-1,0.4-2.1,0.4-3.2,0c-0.9-0.5-1.6-1.3-2-2.3c-6-11.4-16.7-19.2-33.1-19.2c-21.3,0-36.6,16.7-36.6,38.2 c0,20.9,13,38.1,37.2,38.1c12.7,0,22.9-6,27.6-12.6h-15.1c-2.1,0-3.9-1.7-3.9-3.8c0,0,0-0.1,0-0.1v-12.9c0-2.1,1.7-3.9,3.8-3.9 c0,0,0.1,0,0.1,0h44.2c2.1-0.1,3.8,1.5,3.9,3.5c0,0.1,0,0.2,0,0.2v47.4c0,2.1-1.7,3.9-3.8,3.9c0,0-0.1,0-0.1,0h-14.3 c-2.1,0-3.9-1.7-3.9-3.8c0,0,0-0.1,0-0.1L473.5,192.3z"/></g></svg>